<?xml version="1.0" standalone="no"?>
<!DOCTYPE svg PUBLIC "-//W3C//DTD SVG 20010904//EN"
 "http://www.w3.org/TR/2001/REC-SVG-20010904/DTD/svg10.dtd">
<svg version="1.0" xmlns="http://www.w3.org/2000/svg"
 width="1024.000000pt" height="1024.000000pt" viewBox="0 0 1024.000000 1024.000000"
 preserveAspectRatio="xMidYMid meet">

<g transform="translate(0.000000,1024.000000) scale(0.100000,-0.100000)"
fill="#000000" stroke="none">
<path d="M4685 9489 c-547 -31 -1131 -220 -1629 -527 -201 -124 -407 -294
-621 -513 -181 -186 -235 -250 -364 -434 -206 -295 -334 -558 -461 -945 -50
-151 -68 -230 -95 -393 -39 -246 -49 -360 -50 -577 0 -410 62 -720 244 -1216
38 -104 158 -341 258 -510 138 -231 365 -518 582 -734 257 -255 504 -434 806
-581 383 -187 907 -325 1330 -350 345 -21 731 10 1068 86 407 91 830 278 1142
503 49 36 128 92 175 125 101 72 427 394 551 547 195 239 397 582 514 877 137
341 222 691 265 1095 35 336 -26 788 -161 1178 -34 96 -70 202 -81 235 l-20
60 92 95 c229 236 477 597 602 875 90 201 184 467 208 592 14 71 4 115 -37
164 -52 61 -165 84 -408 83 -395 -2 -756 -92 -1212 -302 -84 -39 -185 -91
-226 -116 -40 -25 -79 -46 -86 -46 -7 0 -41 21 -76 47 -206 153 -606 370 -855
466 -227 88 -567 170 -810 196 -270 30 -400 34 -645 20z m605 -114 c440 -60
693 -135 1058 -311 180 -87 575 -329 598 -366 4 -7 0 -16 -10 -22 -10 -6 -38
-24 -62 -39 -50 -33 -35 -38 -196 66 -54 34 -137 87 -185 118 -151 95 -421
214 -648 283 -401 124 -956 159 -1422 91 -277 -41 -651 -154 -918 -278 -211
-98 -443 -251 -634 -420 -314 -276 -375 -342 -583 -627 -252 -345 -492 -970
-530 -1378 -17 -187 -14 -585 5 -730 34 -246 133 -587 232 -797 26 -55 56
-120 67 -145 35 -78 149 -271 211 -359 72 -102 62 -89 143 -186 37 -44 69 -82
71 -84 2 -2 5 -2 8 1 3 3 -1 12 -9 21 -8 8 -12 17 -9 21 6 6 -56 115 -84 147
-15 18 -53 89 -47 89 2 0 34 -45 70 -101 44 -65 116 -151 207 -245 l139 -144
-26 -38 c-40 -58 -31 -149 20 -193 18 -16 24 -16 87 1 37 10 74 23 82 30 12
10 19 9 37 -4 227 -162 304 -214 402 -270 361 -207 808 -345 1250 -387 163
-15 568 -7 731 16 523 71 945 232 1355 518 161 112 263 199 425 361 476 477
768 1042 881 1707 46 273 42 661 -10 918 -28 135 -28 139 -9 137 9 0 26 14 39
31 l22 33 21 -78 c82 -294 88 -758 16 -1147 -31 -163 -157 -570 -207 -668 -54
-106 -80 -184 -82 -241 -1 -36 -7 -61 -14 -64 -7 -2 -12 -12 -12 -23 0 -10 -7
-19 -15 -19 -9 0 -15 -9 -15 -24 0 -14 -6 -31 -13 -38 -15 -16 -39 -66 -44
-93 -2 -10 -12 -29 -23 -40 -11 -12 -20 -31 -20 -43 0 -26 -18 -29 -37 -4 -12
15 -12 14 -2 -10 11 -24 9 -30 -12 -48 -26 -21 -76 -23 -72 -2 4 17 -1 15 -21
-7 -17 -19 -17 -19 2 -14 16 4 20 0 20 -21 0 -15 -8 -31 -18 -36 -14 -8 -17
-16 -11 -37 6 -20 3 -31 -8 -40 -13 -10 -13 -14 -3 -21 9 -6 6 -15 -13 -36
-14 -15 -25 -30 -25 -33 0 -11 -50 -52 -72 -58 -29 -9 -49 -25 -43 -35 2 -4
-7 -5 -22 -2 -23 4 -25 2 -21 -21 4 -19 1 -24 -9 -20 -11 4 -14 -1 -11 -18 3
-25 -39 -71 -183 -201 -94 -85 -131 -108 -168 -103 -28 3 -30 1 -21 -15 13
-24 13 -40 0 -20 -7 12 -12 12 -22 2 -9 -9 -9 -12 1 -12 7 0 9 -5 6 -10 -9
-15 -46 -2 -71 26 -12 12 -24 21 -27 18 -2 -3 8 -18 24 -34 16 -16 29 -33 29
-38 0 -9 -92 -72 -105 -72 -3 0 -5 9 -5 20 0 13 -5 18 -14 14 -8 -3 -23 -1
-33 4 -17 10 -17 11 0 18 18 7 71 54 61 54 -2 0 -27 -15 -54 -33 -31 -20 -49
-38 -47 -49 2 -16 -46 -79 -61 -77 -15 1 -47 18 -36 18 7 1 14 7 17 15 6 14
-45 -7 -106 -45 -30 -18 -30 -20 -7 -17 14 2 31 7 38 12 26 16 25 -4 -2 -25
-14 -11 -25 -28 -24 -36 2 -9 -3 -18 -10 -20 -7 -3 -10 1 -6 11 3 9 1 16 -5
16 -6 0 -11 -8 -11 -18 0 -11 -11 -24 -25 -30 -14 -7 -28 -19 -31 -27 -4 -8
-11 -12 -17 -8 -5 3 -16 -1 -22 -11 -8 -10 -19 -14 -30 -10 -15 6 -15 9 6 21
23 13 22 14 -17 9 -46 -6 -59 0 -43 21 16 19 9 17 -78 -21 -195 -86 -470 -159
-773 -206 -100 -16 -111 -19 -55 -16 74 4 271 37 368 61 33 8 63 13 68 9 5 -3
9 -1 9 4 0 6 17 13 38 16 20 4 49 9 64 12 26 5 27 4 18 -25 -8 -30 -8 -30 23
-24 58 10 16 -14 -63 -37 -232 -67 -307 -80 -720 -126 -85 -10 -443 -6 -565 6
-237 22 -577 95 -765 164 -98 36 -253 102 -350 150 -30 15 -64 29 -74 31 -36
8 -169 90 -185 115 -22 35 -43 50 -66 48 -26 -3 -59 16 -120 67 -27 23 -63 49
-80 58 -42 21 -271 225 -391 348 -56 58 -132 145 -170 194 -37 50 -104 131
-148 180 -74 84 -148 189 -208 295 -46 81 -128 213 -128 207 0 -4 12 -31 26
-61 14 -30 24 -61 21 -68 -2 -8 -10 0 -17 17 -8 17 -29 64 -48 105 -116 254
-176 449 -252 820 -50 243 -63 524 -40 816 34 410 156 839 338 1179 114 215
118 221 281 455 80 116 181 232 335 385 188 188 292 276 471 397 168 114 272
173 464 262 375 175 706 264 1141 306 135 13 542 4 680 -15z m3403 -281 c49
-9 67 4 -245 -170 -46 -25 -118 -68 -160 -95 -42 -27 -79 -49 -82 -49 -24 0
32 132 78 188 26 30 27 32 7 32 -37 0 -88 -79 -135 -212 -16 -44 -92 -128
-116 -128 -34 0 43 213 108 298 27 35 16 42 -32 21 -33 -15 -87 -135 -117
-259 -17 -71 -29 -102 -50 -122 -31 -31 -49 -36 -49 -13 0 26 49 202 80 286
17 44 30 82 30 85 0 14 -42 0 -54 -18 -19 -30 -52 -143 -85 -292 -24 -108 -29
-121 -59 -144 l-32 -25 0 41 c0 58 26 187 60 298 35 113 34 104 14 104 -26 0
-63 -101 -100 -267 -46 -217 -52 -233 -93 -257 l-34 -20 6 55 c3 30 26 138 51
241 25 103 46 190 46 193 0 3 -6 5 -14 5 -20 0 -46 -77 -91 -265 -62 -266 -66
-277 -104 -302 -19 -13 -36 -21 -39 -18 -2 2 7 53 22 112 40 165 96 415 96
426 0 17 -31 -16 -44 -47 -7 -17 -36 -125 -64 -241 -74 -299 -78 -311 -111
-335 -61 -42 -61 -45 6 215 70 273 87 354 79 362 -23 23 -70 -113 -135 -392
-55 -233 -67 -267 -97 -288 -14 -11 -27 -17 -29 -15 -9 9 19 173 51 296 36
140 64 273 64 306 0 26 -23 6 -43 -37 -14 -29 -80 -358 -107 -532 -11 -68 -30
-105 -56 -105 -24 0 -24 19 0 137 13 65 27 156 31 203 3 47 13 124 21 173 8
48 13 99 12 114 -3 25 5 31 82 71 151 78 159 82 178 82 10 0 27 9 36 19 10 11
63 38 119 61 325 136 630 209 932 223 33 2 76 4 95 5 19 1 52 -1 73 -4z m192
-61 c0 -10 -110 -89 -240 -173 -128 -83 -283 -191 -296 -207 -13 -17 -12 -17
6 -2 22 19 65 34 80 30 6 -1 7 1 3 5 -9 8 157 128 262 188 41 24 97 62 125 85
53 44 65 49 65 27 0 -21 -43 -57 -170 -144 -351 -239 -669 -464 -784 -556 -50
-40 -118 -93 -152 -117 -143 -103 -417 -312 -514 -393 -58 -48 -139 -111 -180
-141 -42 -29 -114 -85 -160 -126 -47 -40 -119 -97 -160 -128 -85 -62 -246
-199 -400 -342 -58 -54 -144 -128 -191 -166 -75 -59 -449 -406 -663 -615 -58
-56 -72 -66 -85 -56 -36 27 -101 93 -101 103 0 14 287 296 500 491 157 144
378 340 610 539 121 105 638 506 915 711 370 274 979 684 1280 862 66 39 143
87 170 106 48 35 80 43 80 19z m-3735 -283 c15 -23 88 -247 103 -315 l13 -59
95 -17 c99 -18 314 -76 398 -108 l50 -19 87 97 c121 134 162 171 191 171 14 0
56 -16 95 -37 84 -44 250 -155 255 -170 2 -6 -38 -47 -89 -91 -112 -96 -412
-416 -470 -502 l-16 -25 -34 19 c-143 81 -403 175 -608 218 -91 20 -134 23
-320 23 -197 0 -225 -2 -335 -27 -238 -54 -334 -86 -475 -160 -146 -76 -181
-99 -352 -230 -131 -101 -188 -157 -291 -290 -216 -279 -323 -546 -363 -907
-15 -134 -16 -177 -6 -306 21 -276 117 -571 251 -769 40 -59 40 -60 24 -95
-19 -44 -71 -173 -106 -266 -39 -100 -89 -165 -127 -165 -16 0 -64 -15 -107
-34 -96 -42 -245 -81 -266 -70 -36 21 -224 298 -248 365 -12 35 -11 39 20 80
33 46 217 219 232 219 16 0 10 36 -15 91 -38 88 -83 236 -105 354 -12 60 -27
112 -33 116 -6 4 -38 10 -72 14 -99 11 -268 45 -297 61 -38 19 -42 49 -37 274
3 149 7 193 18 205 21 20 193 64 308 79 l96 12 22 114 c13 63 46 180 74 260
28 80 53 152 56 160 3 10 -7 22 -31 34 -19 11 -78 63 -130 117 -119 124 -123
140 -71 243 41 81 157 239 198 269 26 19 28 19 95 3 37 -10 115 -37 172 -62
57 -24 109 -44 116 -44 6 0 43 36 81 81 76 89 186 190 257 235 26 16 46 35 47
41 0 7 -28 74 -62 150 -34 77 -61 152 -62 172 -1 32 5 40 69 88 91 70 304 178
332 169 21 -7 131 -118 219 -221 l52 -60 168 57 c93 32 216 67 274 78 57 12
106 23 108 24 1 2 14 46 28 97 39 146 74 248 92 265 22 23 418 17 432 -6z
m-896 0 c34 -13 58 -52 58 -97 0 -29 -7 -43 -31 -65 -42 -38 -83 -37 -122 1
-33 34 -38 75 -14 121 24 47 58 60 109 40z m4516 -142 c-198 -463 -486 -871
-825 -1170 -164 -143 -544 -438 -566 -438 -14 0 -48 33 -43 41 2 4 -17 10 -43
14 -110 14 -193 28 -268 46 -44 10 -124 23 -179 29 -54 6 -109 16 -123 21 -22
8 -23 11 -12 25 11 14 28 16 104 11 99 -6 345 -45 498 -79 82 -18 103 -19 137
-9 22 6 40 15 40 20 0 14 -125 50 -227 66 -54 8 -168 24 -253 35 -222 30 -233
35 -163 62 24 10 48 13 72 7 20 -4 88 -13 151 -19 125 -14 270 -37 278 -45 3
-2 -3 -7 -12 -11 -9 -3 -16 -9 -16 -13 0 -11 86 -33 112 -28 19 4 18 5 -7 6
-27 1 -28 3 -11 13 10 6 55 11 100 12 63 1 89 6 111 21 l30 19 -27 10 c-31 11
-39 46 -10 46 10 1 5 6 -13 14 -27 11 -21 12 57 8 80 -4 87 -3 97 17 7 11 8
21 4 21 -4 1 16 9 46 19 55 19 77 39 61 55 -6 6 4 18 25 33 19 13 35 28 35 33
0 6 8 10 18 10 21 0 62 27 62 41 0 5 -6 9 -14 9 -7 0 -19 6 -25 14 -9 11 -5
15 23 20 19 4 39 13 46 21 7 8 18 15 25 15 7 0 24 9 39 21 23 18 24 22 11 35
-23 23 -19 28 29 43 25 7 53 22 63 33 17 19 17 20 -2 35 -20 15 -20 15 -1 26
89 55 111 74 110 95 0 16 13 33 48 58 38 28 48 42 48 64 0 20 10 37 34 57 18
15 41 44 51 63 10 19 23 42 30 50 7 8 65 118 130 244 115 227 152 292 162 282
3 -2 -19 -60 -47 -128z m-3095 99 c21 -17 27 -32 28 -68 2 -54 -13 -76 -57
-84 -50 -10 -83 8 -96 53 -15 49 6 108 42 115 46 9 57 7 83 -16z m1470 -89
c-4 -13 -11 -86 -15 -163 -4 -77 -11 -158 -15 -180 -16 -87 -76 -309 -88 -324
-56 -72 -60 -24 -17 188 34 166 62 343 55 349 -15 16 -80 -242 -110 -438 -23
-146 -33 -181 -63 -212 -49 -53 -52 -35 -21 140 29 166 88 470 100 517 12 43
17 48 103 106 68 45 81 48 71 17z m-210 -117 c-6 -19 -54 -248 -119 -567 -19
-88 -38 -170 -44 -181 -12 -21 -61 -58 -68 -50 -13 12 127 690 153 740 16 32
60 77 75 77 5 0 7 -9 3 -19z m-2645 -25 c0 -2 -13 -9 -30 -15 -35 -12 -41 -5
-7 9 25 10 37 12 37 6z m2490 -84 c0 -27 -106 -566 -136 -695 -13 -52 -23 -72
-44 -87 -16 -11 -31 -20 -34 -20 -15 0 3 104 69 410 18 85 41 191 51 235 19
90 37 141 61 167 23 25 33 22 33 -10z m-160 -154 c0 -18 -11 -89 -25 -158 -13
-69 -43 -219 -65 -335 -38 -197 -42 -212 -70 -237 -37 -34 -52 -36 -45 -5 3
12 14 72 24 132 29 161 68 372 81 433 13 58 8 74 -15 51 -17 -17 -75 -274
-115 -507 -16 -96 -36 -185 -45 -198 -17 -26 -63 -60 -70 -52 -5 5 67 405 90
498 22 91 25 140 9 140 -8 0 -19 -22 -28 -52 -22 -81 -82 -368 -107 -513 -22
-123 -25 -132 -61 -170 -37 -40 -38 -40 -38 -13 0 14 5 48 10 75 6 26 21 116
35 198 13 83 31 188 40 234 20 109 4 131 -24 35 -12 -38 -46 -195 -76 -348
-31 -154 -59 -285 -63 -291 -9 -16 -68 -65 -77 -65 -11 0 1 79 41 250 36 159
65 332 58 339 -13 14 -31 -41 -88 -270 -35 -140 -71 -285 -80 -324 -13 -57
-24 -77 -56 -110 -39 -38 -40 -39 -40 -15 0 43 40 241 69 340 35 120 43 160
31 160 -23 0 -67 -138 -140 -434 -17 -72 -37 -141 -45 -155 -17 -33 -63 -76
-71 -68 -9 9 24 176 57 287 35 117 36 140 2 75 -45 -87 -74 -187 -84 -290 -10
-103 -23 -133 -54 -121 -13 5 -16 14 -12 39 17 98 18 122 6 103 -7 -11 -15
-62 -18 -114 l-6 -93 -150 -145 c-134 -131 -151 -143 -162 -128 -10 14 -10 21
0 33 28 33 92 148 172 309 95 192 306 522 461 717 300 380 343 429 531 598 66
59 134 127 153 152 40 54 60 58 60 13z m1165 -258 c4 -6 -5 -10 -20 -10 -15 0
-24 4 -20 10 3 6 12 10 20 10 8 0 17 -4 20 -10z m145 -94 c63 -7 108 -16 100
-20 -16 -7 -169 7 -250 23 l-45 8 40 1 c22 0 92 -5 155 -12z m-27 -53 c-7 -2
-21 -2 -30 0 -10 3 -4 5 12 5 17 0 24 -2 18 -5z m72 -83 l40 -8 -40 0 c-22 -1
-67 5 -100 13 l-60 14 60 -6 c33 -3 78 -9 100 -13z m-517 -42 c6 -6 17 -13 24
-15 57 -12 92 -23 97 -31 3 -5 24 -13 46 -17 27 -6 33 -10 19 -12 -26 -5 -212
22 -266 39 l-40 12 34 17 c39 21 69 24 86 7z m-123 -118 c22 -11 48 -20 60
-20 11 -1 31 -7 45 -15 l25 -14 -35 -1 c-57 0 -204 20 -214 30 -6 6 4 15 25
24 44 20 48 20 94 -4z m122 -6 c-3 -3 -12 -4 -19 -1 -8 3 -5 6 6 6 11 1 17 -2
13 -5z m278 -34 c29 -7 28 -8 -10 -8 -22 0 -49 3 -60 8 -17 7 -15 9 10 8 17 0
44 -4 60 -8z m-2716 -14 c8 -10 11 -52 9 -128 l-3 -113 73 -3 c44 -2 79 2 87
8 8 6 26 44 41 83 14 40 34 80 44 90 17 18 19 18 69 -3 28 -13 51 -28 51 -34
0 -7 -13 -49 -30 -94 -40 -110 -39 -129 5 -148 19 -7 48 -14 65 -14 27 0 35 8
68 61 72 118 77 124 105 127 l28 3 -17 -33 c-19 -36 -179 -275 -198 -296 -10
-10 -25 -7 -79 18 -164 77 -433 97 -642 48 -333 -78 -633 -303 -770 -577 -29
-58 -70 -203 -92 -331 -20 -116 -12 -318 17 -419 11 -41 19 -79 17 -85 -4 -11
-100 -46 -125 -46 -7 0 -12 10 -12 23 0 13 -6 31 -13 42 -13 17 -20 17 -112 6
-65 -9 -101 -9 -107 -3 -6 6 -13 30 -15 55 -5 39 -2 47 18 60 13 9 47 19 74
22 28 4 61 14 74 22 22 14 23 19 16 81 -4 36 -9 71 -12 78 -3 10 -37 14 -116
16 l-112 3 -5 35 c-3 19 -3 51 0 70 l5 35 107 3 c79 2 109 6 118 17 19 23 32
106 19 121 -6 7 -49 25 -95 39 -48 15 -88 33 -91 41 -7 19 17 95 32 101 7 2
51 -2 99 -10 61 -10 89 -10 95 -3 22 28 41 79 36 95 -3 11 -36 35 -73 54 -92
49 -107 66 -93 109 10 30 54 88 67 88 3 0 42 -16 85 -35 44 -19 87 -35 95 -35
16 0 104 67 104 79 0 4 -31 45 -70 90 -38 46 -70 92 -70 102 0 25 51 81 95
105 42 22 36 25 102 -70 55 -78 97 -84 168 -22 l40 34 -23 43 c-13 24 -33 60
-45 81 -27 46 -15 79 42 107 47 24 49 22 106 -63 58 -87 60 -89 98 -82 43 8
117 56 117 76 0 9 -16 49 -35 89 -34 71 -35 75 -18 93 21 24 77 48 110 48 24
0 45 -35 97 -164 l16 -38 57 7 c114 13 106 4 101 116 -7 134 -3 139 106 139
60 0 87 -4 95 -14z m2611 -10 c25 -9 34 -14 20 -12 -14 3 -52 8 -85 11 -33 4
-66 11 -74 15 -26 14 92 2 139 -14z m217 -2 c-3 -3 -12 -4 -19 -1 -8 3 -5 6 6
6 11 1 17 -2 13 -5z m-499 -34 c250 -28 324 -40 347 -54 11 -7 37 -16 57 -20
77 -14 44 -23 -70 -19 -147 6 -523 56 -582 79 -12 4 -12 8 4 20 25 18 32 18
244 -6z m-133 -104 c163 -20 258 -36 268 -45 4 -4 -7 -6 -25 -4 -24 3 -29 2
-19 -5 12 -8 10 -11 -10 -15 -14 -2 -10 -4 10 -3 28 2 31 1 16 -10 -9 -7 -31
-11 -48 -8 -18 2 -77 9 -132 14 -121 13 -335 51 -335 60 0 15 48 29 100 29 30
1 109 -6 175 -13z m333 -53 c-10 -2 -26 -2 -35 0 -10 3 -2 5 17 5 19 0 27 -2
18 -5z m-163 -123 c-3 -5 -10 -10 -16 -10 -5 0 -9 5 -9 10 0 6 7 10 16 10 8 0
12 -4 9 -10z m494 -67 c0 -25 -1 -25 -8 -8 -5 11 -7 23 -4 28 8 14 13 7 12
-20z m-1039 -68 c130 -14 185 -24 355 -69 32 -9 84 -16 115 -16 l55 0 -114
-75 c-63 -41 -119 -75 -126 -75 -7 0 -32 -15 -56 -33 -40 -31 -130 -85 -321
-193 -133 -75 -323 -172 -408 -207 -47 -19 -134 -56 -195 -82 -60 -26 -182
-76 -270 -112 -88 -35 -189 -78 -224 -95 -62 -30 -89 -31 -98 -2 -3 13 135
115 139 103 8 -25 253 59 398 137 25 13 64 29 88 34 23 6 42 15 42 19 0 13
-47 20 -237 36 -25 2 -50 -3 -62 -12 -39 -27 -21 5 21 39 23 18 39 28 36 23
-4 -6 -4 -15 0 -21 9 -12 198 -34 235 -27 33 6 35 20 5 25 -13 2 27 3 87 3 82
1 120 5 149 18 22 9 36 20 33 23 -3 3 -61 10 -129 15 -133 10 -228 26 -228 38
0 5 -11 6 -25 3 -13 -2 -32 -1 -41 2 -15 6 -14 9 6 31 13 13 26 22 31 20 4 -3
94 -10 199 -16 206 -12 303 -5 400 28 88 30 72 38 -67 35 -137 -3 -173 6 -138
32 11 9 32 16 47 16 29 0 46 15 26 23 -13 6 88 0 152 -8 115 -14 138 -15 164
-7 16 4 31 13 33 19 4 11 -17 15 -222 48 -49 8 -117 19 -150 24 -50 9 -117 16
-172 20 -7 1 -13 7 -13 15 0 35 23 35 250 4 254 -34 446 -46 463 -29 6 6 8 13
5 17 -9 8 -195 39 -353 58 -237 29 -295 44 -243 62 36 12 69 12 58 -1 -6 -7
-2 -11 10 -11 10 0 17 3 14 7 -14 23 125 12 406 -31 135 -21 238 -23 243 -6 6
25 -65 46 -199 62 -241 27 -437 53 -442 59 -3 2 6 13 19 24 30 25 63 26 249 6z
m-4465 -87 c83 -77 41 -198 -69 -198 -25 0 -45 9 -71 31 -30 26 -35 38 -35 73
0 48 19 80 64 107 44 27 71 24 111 -13z m188 -22 c19 -15 22 -43 8 -78 -16
-41 -69 -212 -76 -247 -6 -28 -9 -31 -17 -18 -5 9 -15 17 -22 17 -22 0 -25 86
-5 130 9 20 25 73 35 118 17 75 23 85 54 91 3 0 13 -6 23 -13z m2493 -77 c63
-11 214 -57 227 -69 4 -4 -19 -65 -51 -136 -33 -71 -63 -139 -66 -151 -7 -22
-8 -22 -57 11 -45 31 -154 66 -207 66 -35 0 -175 -41 -224 -66 -98 -50 -203
-178 -280 -340 -31 -65 -33 -75 -33 -180 0 -110 -9 -144 -39 -144 -6 0 -24 -7
-41 -16 -16 -9 -64 -29 -106 -44 l-77 -28 -16 107 c-24 157 -21 261 10 367
110 380 434 628 825 633 41 1 102 -4 135 -10z m1264 -84 c0 -2 -10 -10 -22
-16 -21 -11 -22 -11 -9 4 13 16 31 23 31 12z m-100 -96 c0 -5 4 -8 8 -5 12 7
38 -12 29 -21 -9 -8 -86 -7 -96 2 -7 8 28 35 46 35 7 0 13 -5 13 -11z m1007
-59 c8 -25 17 -74 21 -110 l7 -65 76 -6 c80 -7 231 -33 287 -50 22 -7 34 -19
40 -37 4 -15 7 -116 6 -225 -1 -164 -3 -201 -16 -214 -18 -17 -179 -65 -308
-92 l-85 -17 -21 -100 c-33 -156 -70 -277 -114 -363 -37 -74 -38 -80 -20 -86
20 -6 162 -148 224 -223 34 -42 35 -43 21 -82 -34 -95 -210 -358 -251 -374
-16 -6 -225 72 -290 108 l-42 23 -70 -77 c-66 -72 -237 -226 -307 -276 l-29
-22 46 -103 c26 -57 54 -132 64 -165 17 -62 17 -62 -7 -105 -18 -32 -41 -53
-89 -81 -177 -103 -235 -131 -276 -136 -43 -4 -45 -3 -104 57 -32 35 -83 98
-112 142 -29 43 -60 79 -68 79 -8 0 -44 -10 -80 -21 -123 -39 -325 -91 -399
-103 l-75 -12 -17 -81 c-19 -88 -51 -205 -75 -270 -19 -53 -29 -55 -247 -55
-151 0 -172 2 -195 19 -31 23 -54 86 -91 253 l-28 125 -39 8 c-128 27 -274 64
-392 99 -127 38 -135 39 -145 22 -11 -20 -191 -220 -222 -246 -30 -26 -68 -22
-148 18 -110 55 -243 133 -262 154 -24 27 -15 61 23 83 59 34 579 206 685 226
56 10 176 45 267 76 l165 56 115 -10 c294 -28 488 -22 693 20 255 51 514 166
717 316 113 83 323 302 413 428 88 123 200 343 246 480 42 127 90 375 97 502
5 94 -4 233 -22 313 -4 22 1 28 43 51 199 107 282 154 308 175 44 35 67 28 82
-26z m-4772 -40 c-27 -12 -43 -12 -25 0 8 5 22 9 30 9 10 0 8 -3 -5 -9z m2365
-137 c-30 -20 -128 -118 -153 -153 -10 -14 -16 -20 -13 -14 9 18 -28 23 -43 7
-7 -8 -16 -11 -20 -7 -3 4 0 9 7 11 6 3 12 10 12 17 0 7 25 36 55 65 55 52
123 91 160 90 18 0 18 -2 -5 -16z m281 -123 c74 -55 136 -113 205 -192 54 -62
132 -148 172 -192 40 -43 78 -89 83 -103 14 -38 -12 -84 -71 -129 -29 -21 -59
-43 -65 -48 -9 -7 -42 17 -111 79 -158 141 -494 474 -494 488 0 27 139 177
163 177 7 0 60 -36 118 -80z m719 -15 c-7 -8 -20 -15 -29 -15 -11 1 -8 5 9 15
32 18 35 18 20 0z m445 -161 c-199 -55 -211 -63 -225 -159 -31 -221 -128 -414
-288 -569 -134 -130 -383 -266 -581 -317 -115 -29 -107 -22 24 24 351 125 616
333 745 587 44 87 90 243 90 305 0 65 6 70 130 114 104 36 116 39 160 39 25 0
8 -7 -55 -24z m-1541 -33 c17 -19 17 -20 -13 -36 -28 -14 -46 -5 -21 10 6 3
10 15 10 26 0 24 3 24 24 0z m1706 -72 c-12 -28 -14 -29 -79 -28 -76 2 -134
13 -111 22 8 3 50 9 93 12 72 6 79 9 90 33 10 21 13 22 15 8 2 -10 -2 -31 -8
-47z m-1523 -84 l58 -55 -180 -176 c-99 -97 -257 -248 -351 -335 l-171 -158
-54 8 c-144 23 -250 -68 -253 -217 l-1 -65 -185 -176 c-102 -96 -293 -282
-425 -412 -132 -130 -254 -246 -272 -258 -59 -40 -52 -87 12 -75 l30 5 -25
-21 c-55 -45 -112 -78 -126 -73 -8 3 -17 16 -20 29 -5 19 9 46 59 122 92 138
156 251 257 457 89 181 304 708 336 823 16 57 20 63 53 72 20 5 40 10 44 10
25 0 610 221 702 265 101 49 338 198 410 259 17 14 33 25 37 26 4 0 33 -25 65
-55z m918 13 c-10 -46 -88 -209 -140 -293 -40 -65 -110 -135 -134 -135 -5 0
15 26 45 58 104 109 142 227 97 304 l-20 33 58 19 c32 10 66 24 76 32 25 19
25 18 18 -18z m-763 -165 c16 -26 15 -28 -22 -72 -20 -25 -53 -72 -71 -103
-19 -32 -80 -133 -136 -225 -115 -190 -154 -271 -220 -457 -25 -71 -54 -138
-63 -149 -10 -10 -16 -26 -13 -35 2 -10 -1 -28 -7 -42 -10 -25 -10 -25 -5 3 4
20 2 28 -6 25 -24 -8 -33 -35 -21 -60 l12 -23 -5 25 -6 25 15 -25 c18 -29 20
-44 6 -35 -6 4 -10 -6 -10 -24 0 -38 -11 -44 -131 -72 -374 -86 -682 -184
-832 -265 -82 -44 -65 -43 31 2 42 20 120 49 172 66 341 107 501 153 618 178
182 40 180 38 208 136 27 96 123 368 167 474 17 41 64 136 105 210 75 136 241
398 253 399 4 1 17 -8 30 -18 18 -15 21 -23 14 -34 -5 -8 -47 -66 -93 -128
-89 -122 -224 -382 -282 -542 -17 -49 -51 -134 -74 -190 -24 -56 -55 -145 -70
-197 -15 -52 -32 -99 -37 -105 -11 -11 -101 -36 -329 -94 -230 -58 -360 -95
-505 -144 -159 -54 -457 -176 -517 -210 -23 -14 -56 -31 -71 -36 l-28 -11 37
46 c21 25 78 82 128 126 170 152 661 616 682 644 l20 28 54 -27 c129 -64 271
-5 300 125 11 49 11 66 -3 120 l-16 63 52 45 c69 60 418 394 537 514 52 53 99
96 105 96 6 0 18 -12 27 -27z m1309 7 c23 0 -4 -118 -30 -134 -5 -4 -41 0 -79
9 -38 8 -86 15 -106 17 -64 4 -32 23 45 26 41 1 76 7 77 12 2 6 17 10 33 10
17 0 32 6 35 15 4 8 10 12 15 9 19 -12 8 15 -13 30 -18 13 -19 16 -5 12 10 -3
23 -6 28 -6z m-3901 -174 c20 -9 27 -23 36 -71 6 -33 27 -104 48 -157 l38 -97
-78 -86 c-43 -47 -80 -85 -82 -85 -18 0 -103 59 -111 78 -15 31 -16 29 23 36
75 14 122 80 113 158 -7 60 -29 97 -74 128 -20 13 -30 26 -24 28 6 2 11 21 11
41 0 21 3 41 7 45 8 8 58 -1 93 -18z m4980 14 c-12 -7 -12 -10 -1 -10 9 0 12
-10 8 -37 -10 -71 -12 -78 -34 -103 -12 -13 -25 -44 -29 -69 -6 -38 -2 -54 20
-96 33 -64 33 -76 -4 -115 -20 -21 -30 -27 -30 -17 0 9 -8 18 -17 22 -10 3
-33 19 -52 35 l-33 28 25 79 c43 132 65 213 66 246 1 18 50 46 81 46 13 1 13
0 0 -9z m-2157 -94 c20 -19 56 -41 79 -48 l43 -15 -50 -22 c-27 -13 -86 -34
-130 -48 -44 -14 -88 -29 -97 -34 -10 -5 -18 -5 -18 -1 0 23 120 202 135 202
1 0 18 -15 38 -34z m877 -67 c0 -12 -68 26 -79 43 -8 13 2 10 34 -10 25 -15
45 -30 45 -33z m-3810 14 c36 -21 50 -52 50 -108 0 -55 -33 -85 -92 -85 -71 0
-118 44 -118 111 0 76 91 123 160 82z m5250 -21 c36 -27 48 -83 26 -117 -20
-31 -79 -59 -106 -50 -31 10 -70 64 -70 96 0 34 15 68 39 87 21 16 78 8 111
-16z m-1420 -84 c-20 -38 -42 -58 -63 -58 -20 0 -161 70 -154 76 2 2 19 -4 38
-13 49 -26 148 -23 169 5 19 26 25 20 10 -10z m-377 -214 c20 -20 37 -40 37
-44 0 -32 99 -14 125 22 13 19 15 20 21 4 13 -33 -70 -95 -104 -77 -25 14
-138 131 -126 131 5 0 26 -16 47 -36z m-1570 -96 c11 -13 17 -37 17 -69 0 -45
-3 -51 -32 -69 -43 -26 -54 -25 -100 6 -65 46 -63 97 5 138 47 29 82 27 110
-6z m1212 -37 c-15 -13 -111 -43 -98 -30 10 10 79 38 98 39 6 0 6 -3 0 -9z
m147 -76 c62 7 98 17 98 29 1 6 8 -2 16 -17 19 -36 8 -51 -61 -83 -54 -26 -85
-30 -85 -13 0 6 -16 45 -35 87 l-35 77 35 -41 c30 -36 40 -41 67 -39z m-410
-41 c7 -8 25 -28 39 -44 15 -15 34 -38 42 -51 14 -20 20 -21 59 -13 38 8 43
13 40 34 -2 20 0 22 8 10 5 -8 10 -28 10 -43 0 -30 -29 -48 -101 -61 -45 -8
-53 0 -82 90 -24 76 -19 73 -117 60 -67 -9 -58 10 11 23 66 13 77 12 91 -5z
m-332 -208 c14 -14 152 -9 161 6 6 9 9 6 9 -9 0 -28 -54 -46 -125 -41 -42 2
-52 7 -62 28 -7 15 -9 37 -5 50 l7 25 3 -25 c2 -14 7 -29 12 -34z m-2890 -137
c0 -5 -4 -9 -8 -9 -5 0 -9 7 -9 15 0 8 4 12 9 9 4 -3 8 -9 8 -15z m4618 -315
c-14 -23 -24 -32 -31 -25 -6 6 0 18 19 35 16 14 30 26 31 26 1 0 -7 -16 -19
-36z m287 22 c40 -17 55 -42 55 -94 0 -46 -27 -85 -67 -100 -33 -11 -59 -3
-91 28 -51 48 -51 112 0 155 34 29 55 31 103 11z m-2580 -525 c99 -29 186 -55
193 -57 6 -2 12 -14 12 -28 0 -13 10 -59 23 -102 l23 -79 -35 -2 c-19 -1 -44
-12 -58 -25 -14 -13 -25 -22 -26 -20 -1 2 -15 -1 -30 -7 -16 -6 -32 -9 -37 -6
-5 3 -10 -1 -13 -7 -2 -7 -7 -11 -10 -7 -4 3 3 24 14 47 32 64 20 124 -35 178
-72 72 -165 69 -238 -7 l-37 -39 -17 25 c-9 14 -14 34 -11 44 4 15 1 18 -12
14 -12 -5 -11 -1 5 18 11 13 35 48 53 77 22 35 37 50 45 44 6 -5 92 -32 191
-61z m1497 32 c9 -16 46 -60 82 -100 60 -65 80 -93 57 -79 -5 3 -11 -1 -15 -9
-3 -8 -13 -15 -23 -15 -10 0 -29 -9 -43 -20 -36 -28 -60 -26 -60 6 0 17 -14
40 -39 65 -39 39 -57 44 -136 39 -90 -6 -149 -114 -110 -202 4 -11 3 -18 -4
-18 -6 0 -11 8 -11 18 0 14 -2 14 -9 3 -8 -12 -16 -10 -50 12 -22 15 -45 27
-51 27 -19 0 -29 49 -23 114 3 35 8 68 12 73 3 4 53 20 111 35 58 15 143 39
190 52 109 31 103 31 122 -1z m-1531 -153 c25 -14 49 -62 49 -98 0 -48 -69
-98 -120 -87 -69 15 -94 109 -42 157 41 38 76 47 113 28z m1452 -29 c26 -25
29 -34 23 -65 -16 -87 -95 -124 -149 -70 -48 47 -42 132 10 164 29 17 84 3
116 -29z m834 -317 c-3 -3 -12 -4 -19 -1 -8 3 -5 6 6 6 11 1 17 -2 13 -5z
m-320 -160 c-3 -3 -12 -4 -19 -1 -8 3 -5 6 6 6 11 1 17 -2 13 -5z m-102 -43
c-6 -5 -36 -16 -68 -24 -49 -13 -56 -13 -46 -1 6 7 15 11 20 8 5 -3 9 2 9 10
0 17 1 17 38 21 12 1 26 5 29 9 4 3 11 2 17 -4 6 -6 6 -13 1 -19z"/>
<path d="M7766 4703 c-6 -14 -5 -15 5 -6 7 7 10 15 7 18 -3 3 -9 -2 -12 -12z"/>
<path d="M7696 4588 c-10 -18 -28 -48 -38 -65 -28 -47 -13 -41 17 7 14 23 29
39 33 36 4 -2 7 9 8 25 1 16 0 29 0 29 -1 0 -10 -15 -20 -32z"/>
<path d="M7596 4425 c-20 -30 -33 -55 -29 -54 10 0 75 100 70 106 -2 2 -20
-22 -41 -52z"/>
<path d="M7540 4345 c-7 -9 -8 -15 -2 -15 5 0 12 7 16 15 3 8 4 15 2 15 -2 0
-9 -7 -16 -15z"/>
<path d="M7410 4178 c-29 -44 -32 -53 -6 -23 22 26 32 45 23 45 -1 0 -9 -10
-17 -22z"/>
<path d="M7225 3968 c-39 -40 -59 -63 -45 -53 41 33 129 125 119 125 -3 0 -36
-32 -74 -72z"/>
<path d="M2900 3744 c0 -7 40 -44 47 -44 2 0 -4 11 -13 25 -15 23 -34 33 -34
19z"/>
<path d="M6979 3733 c-13 -16 -12 -17 4 -4 9 7 17 15 17 17 0 8 -8 3 -21 -13z"/>
<path d="M2785 3711 c-10 -18 17 -23 33 -7 15 15 15 16 -5 16 -12 0 -24 -4
-28 -9z"/>
<path d="M6910 3679 c-25 -21 -40 -39 -34 -39 6 0 19 9 29 20 10 11 24 20 30
20 12 0 30 29 23 36 -2 1 -23 -15 -48 -37z"/>
<path d="M6600 3459 c0 -5 5 -7 10 -4 6 3 10 8 10 11 0 2 -4 4 -10 4 -5 0 -10
-5 -10 -11z"/>
<path d="M6338 3324 c-25 -12 -49 -29 -54 -36 -5 -10 -4 -11 7 0 7 6 21 12 31
12 10 0 18 5 18 10 0 6 8 10 19 10 10 0 24 7 31 15 17 20 4 18 -52 -11z"/>
<path d="M5168 3013 c6 -2 18 -2 25 0 6 3 1 5 -13 5 -14 0 -19 -2 -12 -5z"/>
<path d="M8340 8930 c-9 -6 -10 -10 -3 -10 6 0 15 5 18 10 8 12 4 12 -15 0z"/>
<path d="M8295 8620 c-3 -6 1 -7 9 -4 18 7 21 14 7 14 -6 0 -13 -4 -16 -10z"/>
<path d="M8211 8571 c-67 -41 -111 -78 -51 -42 19 11 52 30 72 41 31 16 58 40
46 40 -2 0 -32 -18 -67 -39z"/>
<path d="M8026 8445 c-25 -20 -46 -38 -46 -41 0 -6 90 57 96 68 9 15 -3 8 -50
-27z"/>
<path d="M7956 8392 c-2 -4 -62 -49 -133 -100 -70 -51 -144 -106 -163 -123
l-35 -31 35 23 c56 38 310 229 310 234 0 8 -8 6 -14 -3z"/>
<path d="M7575 8110 c-3 -5 -1 -10 4 -10 6 0 11 5 11 10 0 6 -2 10 -4 10 -3 0
-8 -4 -11 -10z"/>
<path d="M7475 8034 c-63 -47 -92 -73 -65 -59 20 11 130 97 130 101 0 7 -4 4
-65 -42z"/>
<path d="M5810 6643 c-41 -37 -100 -92 -130 -121 -52 -52 -51 -51 20 10 41 35
90 75 108 88 28 21 90 90 80 90 -2 0 -37 -30 -78 -67z"/>
<path d="M5579 6433 c-19 -22 -24 -29 -9 -18 40 32 53 46 48 50 -2 3 -20 -12
-39 -32z"/>
<path d="M5514 6378 l-19 -23 23 19 c21 18 27 26 19 26 -2 0 -12 -10 -23 -22z"/>
<path d="M4635 8085 c-348 -46 -696 -196 -985 -426 -93 -73 -295 -274 -358
-354 -101 -130 -214 -335 -290 -525 -36 -90 -90 -321 -108 -457 -19 -147 -15
-246 16 -428 50 -292 216 -693 290 -701 14 -1 37 -4 53 -7 23 -4 27 -1 27 19
0 13 -13 45 -30 71 -16 26 -30 52 -30 59 0 6 -20 56 -44 111 -125 281 -163
495 -146 823 11 207 27 303 82 464 58 173 95 248 203 412 71 109 120 170 193
242 267 265 616 471 917 541 252 59 300 64 535 58 130 -4 243 -12 285 -21 165
-34 456 -130 565 -186 l42 -21 20 21 c14 15 17 25 10 32 -6 6 -8 17 -4 26 4
11 1 14 -11 9 -11 -4 -14 -2 -11 7 7 18 -70 54 -236 113 -176 63 -237 80 -388
108 -113 21 -161 25 -315 24 -100 -1 -227 -7 -282 -14z"/>
<path d="M6998 7253 c7 -3 16 -2 19 1 4 3 -2 6 -13 5 -11 0 -14 -3 -6 -6z"/>
<path d="M6943 7153 c9 -2 23 -2 30 0 6 3 -1 5 -18 5 -16 0 -22 -2 -12 -5z"/>
<path d="M6085 6600 c-3 -6 1 -13 10 -16 19 -8 30 0 20 15 -8 14 -22 14 -30 1z"/>
<path d="M4785 6696 c-27 -8 -68 -21 -90 -29 -31 -12 -35 -16 -17 -16 13 -1
33 4 45 10 25 14 117 20 93 7 -9 -5 -16 -16 -16 -25 0 -12 7 -14 33 -9 24 4
28 3 17 -4 -11 -8 2 -9 45 -5 33 3 104 8 158 11 111 6 121 17 41 48 -64 24
-238 31 -309 12z"/>
<path d="M4590 6620 c-45 -24 -112 -82 -85 -73 11 3 29 16 40 28 11 11 40 31
65 43 25 11 38 21 30 21 -8 0 -31 -8 -50 -19z"/>
<path d="M4480 6499 c0 -11 5 -17 10 -14 6 3 10 13 10 21 0 8 -4 14 -10 14 -5
0 -10 -9 -10 -21z"/>
<path d="M4376 6423 c-6 -14 -5 -15 5 -6 7 7 10 15 7 18 -3 3 -9 -2 -12 -12z"/>
<path d="M4311 6309 c-31 -67 -39 -94 -32 -107 8 -15 12 -12 24 16 7 18 16 29
20 25 4 -3 7 0 7 9 0 15 75 127 94 140 7 5 7 8 -1 8 -7 0 -22 -9 -33 -20 -11
-11 -23 -20 -26 -20 -3 0 -2 9 1 20 3 11 2 20 -3 20 -5 0 -28 -41 -51 -91z"/>
<path d="M7130 6629 c-19 -15 -66 -45 -105 -67 -54 -29 -69 -42 -67 -57 3 -19
3 -19 -10 -2 -13 17 -17 17 -73 -16 -62 -34 -63 -36 -54 -102 5 -39 40 -107
58 -113 8 -3 11 0 7 6 -3 6 4 14 16 17 13 4 33 17 46 28 20 19 23 28 18 72
l-5 50 22 -68 c17 -52 24 -64 32 -52 17 26 144 67 210 68 52 0 56 2 28 9 -36
9 -38 15 -68 168 -10 47 -18 86 -19 86 0 1 -17 -11 -36 -27z"/>
<path d="M7572 5984 c-7 -8 -8 -14 -3 -14 10 0 25 19 20 25 -2 1 -10 -3 -17
-11z"/>
<path d="M7177 5883 c-20 -38 -61 -170 -87 -279 -12 -49 -26 -94 -30 -99 -31
-37 -72 -275 -48 -275 9 0 9 -3 1 -11 -28 -28 52 -115 86 -95 13 8 66 -18 106
-52 17 -14 3 1 -31 34 -33 32 -81 77 -107 100 -60 52 -61 80 -9 190 51 105 96
253 120 394 11 63 19 117 17 118 -2 2 -10 -9 -18 -25z"/>
<path d="M7190 4864 c-47 -80 -92 -152 -101 -159 -14 -13 -22 -13 -70 1 -30 9
-67 23 -84 31 -27 13 -28 13 -11 -2 24 -18 120 -55 146 -55 20 0 126 152 181
262 54 108 25 70 -61 -78z"/>
<path d="M6723 4826 c-24 -13 -97 -80 -265 -243 -65 -62 -122 -113 -128 -113
-6 0 -9 -4 -6 -8 2 -4 -16 -25 -40 -46 -40 -35 -44 -43 -38 -70 9 -45 46 -109
55 -95 4 7 10 3 14 -12 4 -13 14 -32 22 -41 8 -9 12 -22 7 -30 -4 -7 -3 -10 1
-5 5 4 17 -10 27 -30 11 -24 16 -29 12 -13 -3 14 -14 39 -23 55 -9 17 -30 70
-46 119 l-29 89 40 34 c21 19 73 59 115 88 69 49 128 110 253 266 40 50 60 58
98 38 12 -6 18 -7 14 -1 -12 19 -61 30 -83 18z"/>
<path d="M4419 4351 c-47 -16 -108 -38 -135 -50 -27 -11 -110 -34 -184 -50
-74 -16 -160 -39 -190 -51 -30 -12 -89 -36 -130 -52 -41 -17 -115 -44 -165
-60 -49 -16 -108 -37 -129 -47 l-39 -17 34 -27 c20 -15 91 -56 160 -92 l124
-66 77 83 c73 78 100 112 142 181 9 15 25 27 36 27 11 0 74 -18 139 -39 173
-58 234 -45 235 48 1 27 4 47 9 44 4 -2 7 1 7 6 0 7 25 11 63 11 61 1 61 1 32
15 l-30 13 38 1 c20 1 37 4 37 9 0 4 16 24 35 44 19 20 35 41 35 46 0 5 14 12
30 16 50 10 34 23 -37 29 -97 10 -99 9 -194 -22z m-567 -333 c2 -13 9 -22 16
-20 20 4 1 -25 -57 -88 l-50 -55 -67 35 c-70 37 -91 60 -55 60 12 0 21 5 21
11 0 5 -4 7 -10 4 -5 -3 -10 3 -10 14 0 17 6 21 33 21 19 0 37 3 41 8 13 13
70 30 103 31 25 1 32 -3 35 -21z"/>
<path d="M5864 4147 c10 -7 26 -24 36 -38 l19 -24 -3 34 c-2 30 -6 34 -36 38
-31 3 -32 2 -16 -10z"/>
<path d="M5705 4130 c-147 -30 -270 -64 -285 -80 -3 -3 -18 -6 -35 -7 -16 -1
-48 -11 -70 -22 -22 -11 -53 -22 -69 -26 -15 -3 -26 -8 -24 -10 8 -8 190 25
303 54 112 29 327 110 290 109 -11 0 -60 -8 -110 -18z"/>
<path d="M6392 4060 c0 -19 2 -27 5 -17 2 9 2 25 0 35 -3 9 -5 1 -5 -18z"/>
<path d="M5940 4046 c0 -2 8 -10 18 -17 15 -13 16 -12 3 4 -13 16 -21 21 -21
13z"/>
<path d="M5177 3973 c-4 -3 -7 -18 -7 -32 0 -14 -20 -101 -44 -193 -24 -93
-41 -168 -38 -168 10 0 80 246 92 324 11 67 10 83 -3 69z"/>
<path d="M4770 3590 c0 -5 5 -10 11 -10 5 0 7 5 4 10 -3 6 -8 10 -11 10 -2 0
-4 -4 -4 -10z"/>
<path d="M4833 3583 c20 -2 54 -2 75 0 20 2 3 4 -38 4 -41 0 -58 -2 -37 -4z"/>
<path d="M5310 6076 c0 -14 66 -102 121 -161 l29 -31 -28 2 c-15 1 -26 7 -24
13 1 6 -10 11 -26 11 -17 0 -53 20 -101 55 -41 30 -76 55 -78 55 -3 0 5 -12
16 -26 11 -14 18 -31 16 -37 -5 -19 207 -205 213 -187 3 8 20 30 38 48 33 33
33 34 17 65 -29 57 -133 173 -179 200 -9 5 -14 3 -14 -7z"/>
<path d="M5200 5986 c0 -2 8 -10 18 -17 15 -13 16 -12 3 4 -13 16 -21 21 -21
13z"/>
<path d="M4925 5693 l-18 -28 27 24 c28 26 31 31 17 31 -5 0 -17 -12 -26 -27z"/>
<path d="M4849 5623 c-13 -16 -12 -17 4 -4 9 7 17 15 17 17 0 8 -8 3 -21 -13z"/>
<path d="M4809 5583 c-13 -16 -12 -17 4 -4 16 13 21 21 13 21 -2 0 -10 -8 -17
-17z"/>
<path d="M4769 5543 c-13 -16 -12 -17 4 -4 16 13 21 21 13 21 -2 0 -10 -8 -17
-17z"/>
<path d="M4337 4875 c-15 -14 -24 -25 -19 -25 5 0 19 11 32 25 30 32 23 32
-13 0z"/>
<path d="M5267 5529 c7 -7 15 -10 18 -7 3 3 -2 9 -12 12 -14 6 -15 5 -6 -5z"/>
<path d="M0 8031 c0 -5 5 -13 10 -16 5 -3 10 -2 10 4 0 5 -4 13 -10 16 -5 3
-10 2 -10 -4z"/>
<path d="M65 5750 c3 -5 8 -10 11 -10 2 0 4 5 4 10 0 6 -5 10 -11 10 -5 0 -7
-4 -4 -10z"/>
<path d="M245 5220 c3 -5 13 -10 21 -10 8 0 12 5 9 10 -3 6 -13 10 -21 10 -8
0 -12 -4 -9 -10z"/>
<path d="M783 4904 c-8 -24 -50 -64 -67 -64 -6 0 -17 5 -24 12 -7 7 -12 8 -12
2 0 -6 9 -19 20 -29 11 -10 20 -14 20 -9 0 5 12 15 28 21 26 12 60 68 48 80
-3 3 -9 -3 -13 -13z"/>
<path d="M656 4832 c-6 -10 31 -48 38 -41 2 2 -4 14 -14 27 -10 12 -21 18 -24
14z"/>
<path d="M1957 4225 c-20 -8 -61 -26 -90 -41 -28 -15 -81 -42 -117 -60 -36
-18 -56 -33 -45 -33 21 0 52 15 129 63 26 15 79 39 118 52 40 14 74 27 77 29
9 10 -35 3 -72 -10z"/>
<path d="M1179 3892 c6 -12 16 -24 22 -28 8 -4 8 -1 0 14 -6 12 -16 24 -22 28
-8 4 -8 1 0 -14z"/>
<path d="M1172 3488 c-17 -17 -15 -26 6 -37 15 -8 18 -6 17 14 0 30 -8 38 -23
23z"/>
<path d="M850 3080 c-11 -8 -7 -9 15 -4 37 8 45 14 19 14 -10 0 -26 -5 -34
-10z"/>
<path d="M8625 2666 c-101 -32 -157 -87 -176 -172 -16 -71 -5 -134 35 -191 85
-123 260 -139 366 -33 80 80 100 160 60 247 -26 59 -100 128 -157 147 -55 19
-74 19 -128 2z m152 -102 c82 -62 97 -187 29 -243 -13 -11 -16 -11 -16 3 0 9
-7 31 -16 48 -15 29 -15 34 0 59 21 35 20 68 -1 91 -13 14 -31 18 -95 18 l-78
0 0 -84 c0 -99 11 -136 40 -136 16 0 20 7 20 35 0 44 11 44 43 1 15 -18 38
-37 52 -40 34 -9 24 -23 -28 -37 -35 -9 -51 -8 -95 7 -123 41 -150 168 -57
261 41 42 45 43 105 43 52 0 69 -4 97 -26z m-57 -89 c0 -18 -5 -25 -19 -25
-11 0 -23 5 -26 10 -11 18 3 40 25 40 15 0 20 -7 20 -25z"/>
<path d="M4980 2605 c-93 -29 -150 -102 -150 -192 0 -101 45 -178 125 -214
133 -61 288 46 287 197 -1 143 -134 248 -262 209z m105 -115 c38 -35 59 -99
45 -135 -18 -48 -39 -65 -80 -65 -51 0 -85 30 -105 91 -18 54 -14 92 13 123
23 25 94 17 127 -14z"/>
<path d="M5035 2350 l-20 -9 20 0 c11 0 27 4 35 9 13 9 13 10 0 9 -8 0 -24 -4
-35 -9z"/>
<path d="M6825 2591 c-136 -61 -166 -240 -59 -347 73 -74 186 -82 267 -20 109
83 116 215 17 317 -66 69 -146 86 -225 50z m104 -91 c23 -11 45 -32 55 -54 22
-46 20 -60 -4 -36 -20 20 -20 20 -57 -1 -51 -28 -64 -40 -73 -63 -6 -19 -8
-18 -25 8 -10 15 -19 47 -19 72 -1 38 4 50 27 70 34 29 47 30 96 4z m52 -182
c-35 -31 -90 -38 -111 -13 -11 13 -8 15 19 15 37 0 110 35 112 53 1 6 4 3 6
-8 4 -13 -5 -28 -26 -47z"/>
<path d="M1443 2577 c-3 -5 1 -38 8 -75 9 -52 11 -241 5 -863 -4 -437 -4 -803
0 -812 5 -15 24 -17 140 -17 95 0 145 4 169 14 l35 15 0 240 0 240 38 43 c20
24 44 55 53 68 l16 25 37 -28 c42 -33 198 -202 402 -437 244 -282 348 -393
386 -413 34 -17 61 -19 269 -19 126 0 232 2 235 4 13 13 -16 44 -90 97 -124
90 -242 215 -758 802 -70 80 -146 169 -168 199 l-40 54 78 81 c43 44 206 211
363 371 156 160 303 318 326 351 l42 60 -121 6 c-67 4 -171 7 -232 7 l-111 0
-70 -74 c-194 -205 -461 -482 -550 -571 l-100 -100 -5 365 -5 365 -40 7 c-53
10 -305 6 -312 -5z m1240 -84 c-24 -2 -62 -2 -85 0 -24 2 -5 4 42 4 47 0 66
-2 43 -4z m-873 -817 c0 -2 -8 -10 -17 -17 -16 -13 -17 -12 -4 4 13 16 21 21
21 13z m-224 -745 c2 -2 21 -7 41 -11 37 -7 36 -8 -14 -9 l-53 -1 1 68 1 67
10 -55 c6 -30 12 -57 14 -59z"/>
<path d="M5435 1828 c2 -555 5 -701 16 -732 11 -30 27 -47 70 -75 72 -46 159
-111 159 -119 1 -21 35 -46 72 -53 24 -5 77 -16 118 -25 63 -14 87 -15 150 -6
116 17 202 48 284 103 174 116 260 282 259 504 0 118 -19 201 -68 302 -111
227 -399 373 -628 319 -38 -9 -70 -16 -73 -16 -2 0 -4 64 -5 143 0 78 -3 160
-7 182 -7 39 -9 41 -72 61 -36 12 -103 40 -149 63 -47 22 -95 41 -107 41 l-22
0 3 -692z m498 115 c-7 -2 -19 -2 -25 0 -7 3 -2 5 12 5 14 0 19 -2 13 -5z
m165 -285 c109 -52 155 -225 92 -347 -41 -82 -163 -136 -264 -117 -45 9 -100
56 -129 110 -19 35 -22 57 -22 155 l0 113 52 48 c29 26 69 52 90 58 51 14 128
6 181 -20z m192 -388 c0 -23 -93 -109 -149 -139 -81 -43 -89 -39 -13 6 35 21
84 61 110 89 53 59 52 58 52 44z m-383 -186 c-3 -3 -12 -4 -19 -1 -8 3 -5 6 6
6 11 1 17 -2 13 -5z m61 -11 c-10 -2 -26 -2 -35 0 -10 3 -2 5 17 5 19 0 27 -2
18 -5z"/>
<path d="M4237 2503 c-3 -5 -1 -114 4 -243 5 -129 9 -428 8 -665 -1 -379 1
-436 16 -485 35 -111 115 -204 222 -256 58 -29 176 -51 216 -40 l27 6 0 170 0
169 -39 11 c-41 11 -90 58 -92 88 0 9 -2 274 -2 589 -1 314 -5 574 -8 577 -3
3 -68 24 -145 46 -133 38 -198 49 -207 33z m183 -139 c0 -2 -9 0 -20 6 -11 6
-20 13 -20 16 0 2 9 0 20 -6 11 -6 20 -13 20 -16z"/>
<path d="M145 2330 c3 -5 8 -10 11 -10 2 0 4 5 4 10 0 6 -5 10 -11 10 -5 0 -7
-4 -4 -10z"/>
<path d="M86 2244 c-4 -9 -4 -19 -1 -22 2 -3 7 3 11 12 4 9 4 19 1 22 -2 3 -7
-3 -11 -12z"/>
<path d="M7752 2094 c-121 -35 -147 -52 -253 -161 -107 -110 -127 -139 -160
-233 -23 -63 -24 -77 -27 -477 l-4 -413 166 0 c200 0 196 -2 196 108 4 743 -1
691 77 767 93 90 275 82 358 -17 60 -70 60 -71 63 -468 2 -248 7 -369 14 -378
9 -10 48 -13 174 -10 89 2 166 7 171 11 4 5 8 178 8 385 0 368 -1 379 -23 447
-37 109 -66 164 -127 238 -164 196 -398 271 -633 201z m-112 -157 c0 -2 -10
-12 -22 -23 l-23 -19 19 23 c18 21 26 27 26 19z m-101 -107 c-18 -22 -34 -40
-37 -40 -5 0 12 24 42 58 33 37 29 25 -5 -18z m804 -858 c26 -2 42 3 57 18 12
12 23 20 25 18 1 -1 0 -21 -4 -43 -8 -49 -42 -70 -96 -59 -46 8 -59 33 -50 93
l8 46 12 -35 c10 -30 17 -35 48 -38z m-803 -54 c-23 -19 -85 -24 -109 -9 -23
15 -7 34 39 45 32 8 50 20 65 42 l20 31 3 -46 c3 -37 -1 -49 -18 -63z"/>
<path d="M2890 2087 c0 -1 10 -30 22 -62 21 -56 23 -82 29 -395 6 -370 8 -382
76 -512 67 -129 215 -246 357 -284 252 -67 579 109 657 354 19 62 21 96 26
469 5 316 3 406 -7 418 -10 12 -42 15 -177 15 l-165 0 6 -157 c4 -87 3 -252
-2 -368 -7 -197 -9 -213 -32 -254 -34 -61 -105 -104 -179 -109 -49 -3 -63 1
-111 30 -101 61 -112 120 -108 548 2 157 -1 291 -5 298 -6 9 -57 12 -198 12
-104 0 -189 -1 -189 -3z"/>
<path d="M4840 2053 c0 -4 6 -26 12 -48 8 -27 13 -229 17 -615 l6 -575 110 -3
c116 -3 201 3 224 17 11 7 13 118 12 612 -1 332 -4 606 -7 609 -9 8 -374 12
-374 3z m169 -67 c-12 -10 -59 -15 -59 -6 0 5 14 10 32 10 17 0 29 -2 27 -4z
m11 -1048 c14 2 26 8 28 13 4 9 32 -14 32 -25 0 -3 -22 -6 -50 -6 l-50 0 2 58
1 57 6 -50 c6 -46 8 -50 31 -47z"/>
<path d="M6715 2044 c32 -75 33 -110 28 -614 -4 -278 -3 -531 1 -563 l8 -58
158 3 c114 2 163 7 172 16 10 10 13 133 13 605 l0 592 -26 12 c-15 7 -95 15
-194 19 -163 7 -168 7 -160 -12z m202 -1114 c21 0 45 8 56 18 19 16 19 16 16
-3 -7 -32 -54 -50 -100 -36 -35 11 -39 15 -39 44 l1 32 15 -27 c12 -23 22 -28
51 -28z"/>
</g>
</svg>
